<svg width="98" height="98" viewBox="0 0 98 98" fill="none" xmlns="http://www.w3.org/2000/svg">
<path d="M82.8596 55.6067C81.1428 55.3617 79.3998 55.4492 77.6677 55.4908C73.0007 55.6001 68.3337 55.3683 63.6733 55.1365C62.2758 55.0665 60.874 54.9965 59.4984 54.7362C50.3634 53.0064 43.4723 44.803 40.019 36.5713C38.1426 32.0989 37.1913 27.246 37.2153 22.3975C37.2219 21.1597 37.2984 19.9284 37.4275 18.6994C37.5149 17.8683 37.7621 16.847 37.504 16.0225C37.071 14.6382 34.8971 14.5747 33.3335 14.9268C33.0995 16.4512 33.351 18.1111 32.7124 19.5501C32.4368 20.169 32.0475 20.7289 31.6626 21.2844C31.3543 21.7283 30.8622 22.2641 30.7594 22.8131C30.6325 23.4998 29.9284 23.7228 29.4276 23.5413C28.5528 24.9782 27.6145 26.3778 26.6195 27.7337C25.9721 28.6129 25.2985 29.4811 24.8043 30.4543C24.2007 31.6462 23.888 32.9584 23.5927 34.2618C23.0023 36.8643 22.4555 39.5062 22.5233 42.1743C22.6304 46.452 24.3319 50.5854 26.7835 54.0933C30.2673 59.0796 34.9169 62.9746 40.1415 65.9554C45.2415 68.8619 50.534 71.6787 56.3557 72.7919C58.7176 73.2424 61.1342 73.4042 63.5333 73.2708C69.4403 72.945 75.1002 70.8586 80.537 68.5229C83.0805 67.4316 87.7409 65.4721 88.6616 62.4934C89.8841 58.5416 86.2385 56.0878 82.8552 55.6067H82.8596Z" fill="#FCE9C4"/>
<path d="M41.1709 34.4797C44.6263 42.7114 51.5153 50.9147 60.6503 52.6446C62.0259 52.9049 63.4277 52.9749 64.8251 53.0448C69.4878 53.2767 74.1548 53.5085 78.8196 53.3991C80.5516 53.3576 82.2947 53.2701 84.0114 53.515C87.3947 53.9962 91.0404 56.45 89.8178 60.4018C88.8971 63.3783 84.2345 65.3378 81.6933 66.4313C76.2586 68.767 70.5966 70.8512 64.6896 71.1792C62.2883 71.3126 59.8717 71.1508 57.5119 70.7002C51.6902 69.5871 46.3956 66.7703 41.2978 63.8638C36.0709 60.8851 31.4236 56.9901 27.9397 52.0017C25.4882 48.4938 23.7867 44.3626 23.6795 40.0827C23.6117 37.4146 24.1585 34.7727 24.7489 32.1702C25.0442 30.869 25.3569 29.5546 25.9605 28.3627C26.4548 27.3895 27.1284 26.5213 27.7757 25.6421C29.1054 23.8335 30.3279 21.9505 31.4389 19.9997C32.0731 18.8866 32.7752 17.5503 32.6614 16.225C32.5586 15.0113 31.7954 14.0315 33.3197 13.2354C34.6078 12.5619 38.096 12.1398 38.6559 13.9331C38.914 14.7554 38.6668 15.7767 38.5793 16.6099C38.4503 17.839 38.3738 19.0703 38.3672 20.3081C38.3431 25.1566 39.2945 30.0095 41.1709 34.4819V34.4797Z" fill="#FFE681"/>
<path d="M89.708 57.8862C89.8808 58.5882 89.8589 59.3252 89.7561 60.0382C89.6949 60.4734 89.5506 60.9698 89.1438 61.1338C89.0388 61.1754 88.9185 61.1907 88.8114 61.1557C88.6649 61.1076 88.5642 60.9742 88.4768 60.8473C87.8469 59.9157 87.4926 58.8047 87.4489 57.6828C87.4292 57.182 87.4664 55.6926 88.1925 55.6358C88.842 55.5855 89.5921 57.416 89.708 57.8884V57.8862Z" fill="#BD4B17"/>
<path d="M40.4679 14.2913C39.9037 12.4914 39.3679 10.1645 37.4761 9.34873C35.8775 8.65984 33.861 8.98569 32.7369 10.3788C32.1814 11.0655 30.9021 12.3689 30.7862 13.2131C30.6462 14.2257 31.9015 15.7522 32.6036 16.3601C33.2859 16.9528 34.2175 17.318 35.1033 17.1387C35.5822 17.0403 36.0196 16.7932 36.4942 16.6707C37.2181 16.4848 37.9835 16.6029 38.7205 16.7254C39.2126 16.8085 39.7593 16.8828 40.1748 16.6051C40.5226 16.3733 40.691 15.9359 40.7019 15.5182C40.7129 15.1005 40.5904 14.6893 40.4635 14.2913H40.4679Z" fill="#225F40"/>
<path d="M37.329 11.3047C37.8123 11.1734 38.3153 10.8344 38.3503 10.3336C38.3744 9.99903 38.171 9.67538 37.8976 9.48074C37.6242 9.2861 37.2874 9.19861 36.955 9.14394C36.1065 9.00616 35.2317 9.05864 34.3919 9.24891C34.2432 9.28171 34.0901 9.32327 33.9698 9.41731C33.7008 9.63163 33.7183 10.1368 33.8649 10.4299C34.0267 10.7514 34.44 10.8848 34.7527 11.0138C35.5597 11.3484 36.4651 11.5365 37.3268 11.3025L37.329 11.3047Z" fill="#318959"/>
<path d="M36.3044 18.4556C35.4231 23.3654 35.9611 28.203 37.4548 32.9421C38.1699 35.2078 39.0775 37.4167 40.1097 39.5555C41.1704 41.7578 42.3207 44.6511 44.1534 46.3132C44.5996 46.7178 45.411 46.3308 45.2119 45.6965C44.5974 43.7261 43.1387 41.9677 42.1633 40.146C40.9189 37.8213 39.8232 35.4156 38.9638 32.9224C37.3716 28.3057 36.6259 23.4201 36.9364 18.5409C36.9583 18.1823 36.3678 18.0948 36.3022 18.4556H36.3044Z" fill="#F7A450"/>
<path d="M45.7159 48.0275C49.8777 52.4474 57.1537 54.3107 62.9317 55.203C69.9541 56.2877 77.615 56.5305 84.6855 55.7847C85.2803 55.7213 85.2891 54.9077 84.6855 54.8509C77.7747 54.2123 70.8398 55.0455 63.9224 54.0854C60.8628 53.6611 57.8361 52.9766 54.9252 51.9313C51.7541 50.7919 49.1122 49.0073 46.1817 47.4261C45.799 47.2205 45.4163 47.706 45.7181 48.0275H45.7159Z" fill="#F7A450"/>
<path d="M27.0921 38.4025C27.0112 40.5239 27.2364 42.5162 27.7919 44.5676C28.2534 46.2668 28.8088 48.3926 30.2172 49.5232C30.4206 49.6873 30.8055 49.6042 30.7859 49.287C30.6853 47.6424 29.7449 46.1225 29.2572 44.5544C28.6383 42.5621 28.2774 40.4692 28.0303 38.4003C27.9603 37.8142 27.114 37.7792 27.0899 38.4003L27.0921 38.4025Z" fill="#FCE6B9"/>
<path d="M32.2891 53.1408C32.3328 53.8712 32.6587 54.6323 33.4001 54.8816C33.8025 55.0172 34.2246 54.4989 33.9709 54.138C33.7084 53.7641 33.3388 53.4666 33.1967 53.0183C33.0458 52.5437 32.2563 52.5984 32.2913 53.1408H32.2891Z" fill="#FCE6B9"/>
<path d="M60.7789 68.7644C63.9369 69.1799 67.1124 68.5129 70.2245 68.0011C71.8713 67.7299 73.5158 67.461 75.1626 67.1898C76.6935 66.9383 78.3097 66.8573 79.6875 66.1203C79.9215 65.9957 79.8974 65.5539 79.6088 65.5124C76.9166 65.11 73.8111 66.2144 71.154 66.6911C67.7335 67.3057 64.2759 68.2154 60.7789 68.0995C60.3372 68.0842 60.3678 68.7119 60.7789 68.7666V68.7644Z" fill="#FCE6B9"/>
<path d="M75.6934 63.6574C73.9766 63.4125 72.2336 63.5 70.5015 63.5415C65.8345 63.6509 61.1675 63.4191 56.5071 63.1872C55.1096 63.1172 53.7077 63.0473 52.3321 62.787C43.1972 61.0571 36.306 52.8538 32.8528 44.622C30.9764 40.1497 30.025 35.2968 30.0491 30.4483C30.0556 29.2105 30.1322 27.9792 30.2613 26.7501C30.3487 25.9191 30.5958 24.8978 30.3378 24.0733C29.9048 22.6889 27.7309 22.6255 26.1672 22.9776C25.9332 24.5019 26.1847 26.1619 25.5461 27.6009C25.2706 28.2198 24.8813 28.7796 24.4986 29.3351C24.1902 29.7791 23.6981 30.3149 23.5953 30.8638C23.4685 31.5527 22.7643 31.7736 22.2635 31.5921C21.3887 33.0289 20.4505 34.4286 19.4554 35.7845C18.8081 36.6637 18.1345 37.5319 17.6402 38.5051C17.0366 39.697 16.7239 41.0092 16.4287 42.3126C15.8382 44.9151 15.2914 47.557 15.3592 50.2251C15.4664 54.5028 17.1678 58.6361 19.6194 62.144C23.1033 67.1303 27.7528 71.0253 32.9775 74.0062C38.0775 76.9126 43.3699 79.7295 49.1916 80.8426C51.5536 81.2931 53.9702 81.455 56.3693 81.3216C62.2763 80.9957 67.9361 78.9093 73.373 76.5737C75.9164 75.4824 80.5768 73.5229 81.4975 70.5442C82.72 66.5923 79.0744 64.1386 75.6912 63.6574H75.6934Z" fill="#FCE9C4"/>
<path d="M34.0049 42.5324C37.4603 50.7642 44.3493 58.9675 53.4842 60.6974C54.8598 60.9576 56.2617 61.0276 57.6591 61.0976C62.3218 61.3294 66.9887 61.5612 71.6535 61.4519C73.3856 61.4103 75.1287 61.3228 76.8455 61.5678C80.2287 62.0489 83.8743 64.5027 82.6518 68.4545C81.7311 71.431 77.0685 73.3905 74.5273 74.484C69.0926 76.8197 63.4306 78.9039 57.5236 79.2319C55.1223 79.3653 52.7057 79.2035 50.3459 78.753C44.5242 77.6398 39.2296 74.823 34.1318 71.9165C28.9049 68.9379 24.2576 65.0429 20.7737 60.0544C18.3221 56.5465 16.6207 52.4153 16.5135 48.1354C16.4457 45.4673 16.9924 42.8254 17.5829 40.223C17.8782 38.9217 18.1909 37.6073 18.7945 36.4154C19.2888 35.4422 19.9624 34.574 20.6097 33.6949C21.9394 31.8862 23.1619 30.0011 24.2729 28.0525C24.9071 26.9393 25.6091 25.6031 25.4976 24.2778C25.3948 23.064 24.6316 22.0842 26.1559 21.2882C27.444 20.6146 30.9322 20.1925 31.4921 21.9858C31.7501 22.8081 31.503 23.8294 31.4155 24.6627C31.2865 25.8917 31.2099 27.123 31.2034 28.3608C31.1793 33.2093 32.1307 38.0622 34.0071 42.5346L34.0049 42.5324Z" fill="#FFE681"/>
<path d="M82.54 65.9389C82.7128 66.6409 82.6909 67.3757 82.5881 68.0909C82.5269 68.5261 82.3826 69.0225 81.9758 69.1866C81.8709 69.2281 81.7506 69.2434 81.6434 69.2084C81.4969 69.1603 81.3963 69.0269 81.3088 68.9001C80.679 67.9684 80.3247 66.8574 80.2809 65.7355C80.2613 65.2347 80.2984 63.7454 81.0245 63.6885C81.674 63.6382 82.4241 65.4687 82.54 65.9411V65.9389Z" fill="#BD4B17"/>
<path d="M33.3019 22.344C32.7376 20.5441 32.2019 18.2172 30.3101 17.4015C28.7093 16.7126 26.695 17.0384 25.5709 18.4315C25.0154 19.1182 23.7361 20.4217 23.6202 21.2659C23.4802 22.2784 24.7355 23.8049 25.4375 24.4151C26.1199 25.0077 27.0515 25.373 27.9372 25.1936C28.4162 25.0952 28.8536 24.8481 29.3282 24.7256C30.0521 24.5397 30.8175 24.6578 31.5545 24.7803C32.0466 24.8634 32.5933 24.9378 33.0088 24.66C33.3565 24.4282 33.525 23.9908 33.5359 23.5731C33.5468 23.1554 33.4243 22.7442 33.2975 22.3462L33.3019 22.344Z" fill="#225F40"/>
<path d="M30.163 19.3593C30.6463 19.2281 31.1493 18.8892 31.1843 18.3883C31.2084 18.0537 31.005 17.7301 30.7316 17.5354C30.4582 17.3408 30.1214 17.2533 29.789 17.1986C28.9405 17.0608 28.0657 17.1133 27.2259 17.3036C27.0772 17.3364 26.9241 17.3779 26.8038 17.472C26.5348 17.6863 26.5523 18.1915 26.6988 18.4846C26.8607 18.806 27.274 18.9395 27.5867 19.0685C28.3937 19.4031 29.2991 19.5912 30.1608 19.3572L30.163 19.3593Z" fill="#318959"/>
<path d="M29.1404 26.5066C28.259 31.4164 28.797 36.254 30.2907 40.9931C31.0058 43.2588 31.9134 45.4677 32.9457 47.6065C34.0063 49.8088 35.1567 52.7022 36.9894 54.3643C37.4355 54.7689 38.2469 54.3817 38.0479 53.7475C37.4333 51.7771 35.9746 50.0187 34.9993 48.197C33.7549 45.8722 32.6592 43.4666 31.7997 40.9735C30.2076 36.3568 29.4618 31.4711 29.7724 26.5898C29.7942 26.2311 29.2038 26.1436 29.1382 26.5045L29.1404 26.5066Z" fill="#F7A450"/>
<path d="M38.5518 56.0803C42.7136 60.5001 49.9897 62.3634 55.7676 63.2557C62.79 64.3405 70.451 64.5832 77.5214 63.8374C78.1163 63.774 78.125 62.9605 77.5214 62.9036C70.6106 62.265 63.6757 63.0982 56.7584 62.1382C53.6988 61.7139 50.672 61.0294 47.7611 59.984C44.59 58.8446 41.9482 57.06 39.0176 55.4788C38.6349 55.2733 38.2522 55.7588 38.554 56.0803H38.5518Z" fill="#F7A450"/>
<path d="M19.928 46.4552C19.8471 48.5766 20.0724 50.5689 20.6279 52.6203C21.0893 54.3196 21.6448 56.4453 23.0532 57.576C23.2566 57.74 23.6415 57.6569 23.6218 57.3398C23.5212 55.6952 22.5808 54.1752 22.0931 52.6072C21.4764 50.6148 21.1133 48.5219 20.8662 46.453C20.7962 45.8669 19.9499 45.8319 19.9258 46.453L19.928 46.4552Z" fill="#FCE6B9"/>
<path d="M25.123 61.1935C25.1668 61.924 25.4926 62.685 26.234 62.9343C26.6364 63.0699 27.0585 62.5516 26.8048 62.1908C26.5424 61.8168 26.1728 61.5194 26.0306 61.0711C25.8797 60.5965 25.0902 60.6511 25.1252 61.1935H25.123Z" fill="#FCE6B9"/>
<path d="M53.6149 76.8171C56.7729 77.2327 59.9484 76.5656 63.0604 76.0539C64.7072 75.7827 66.3518 75.5137 67.9986 75.2425C69.5294 74.991 71.1457 74.9101 72.5234 74.1731C72.7575 74.0484 72.7334 73.6066 72.4447 73.5651C69.7525 73.1627 66.6471 74.2671 63.9899 74.7439C60.5695 75.3584 57.1118 76.2682 53.6149 76.1523C53.1731 76.137 53.2037 76.7646 53.6149 76.8193V76.8171Z" fill="#FCE6B9"/>
<path d="M68.7539 72.2531C67.0371 72.0082 65.2941 72.0957 63.562 72.1372C58.8951 72.2466 54.228 72.0148 49.5676 71.783C48.1701 71.713 46.7683 71.643 45.3927 71.3827C36.2577 69.6528 29.3666 61.4495 25.9133 53.2178C24.0369 48.7454 23.0856 43.8925 23.1096 39.044C23.1162 37.8062 23.1928 36.5749 23.3218 35.3458C23.4093 34.5148 23.6564 33.4935 23.3983 32.669C22.9653 31.2846 20.7914 31.2212 19.2278 31.5733C18.9937 33.0976 19.2453 34.7576 18.6067 36.1966C18.3311 36.8155 17.9418 37.3754 17.5591 37.9309C17.2508 38.3748 16.7587 38.9106 16.6559 39.4595C16.529 40.1484 15.8249 40.3693 15.324 40.1878C14.4493 41.6246 13.511 43.0243 12.516 44.3802C11.8686 45.2594 11.195 46.1276 10.7008 47.1008C10.0972 48.2927 9.78447 49.6049 9.48923 50.9083C8.89875 53.5108 8.35198 56.1527 8.41977 58.8208C8.52693 63.0985 10.2284 67.2319 12.68 70.7398C16.1638 75.7261 20.8133 79.6211 26.038 82.6019C31.138 85.5084 36.4305 88.3252 42.2522 89.4384C44.6141 89.8889 47.0307 90.0507 49.4298 89.9173C55.3368 89.5914 60.9967 87.5051 66.4335 85.1694C68.9769 84.0781 73.6374 82.1186 74.5581 79.1399C75.7806 75.188 72.135 72.7343 68.7517 72.2531H68.7539Z" fill="#FCE9C4"/>
<path d="M27.0674 51.1281C30.5228 59.3599 37.4118 67.5632 46.5467 69.2931C47.9223 69.5533 49.3242 69.6233 50.7216 69.6933C55.3843 69.9251 60.0512 70.1569 64.716 70.0476C66.4481 70.006 68.1911 69.9185 69.9079 70.1635C73.2911 70.6446 76.9368 73.0984 75.7143 77.0503C74.7936 80.0267 70.131 81.9862 67.5898 83.0797C62.1551 85.4154 56.4931 87.4996 50.5861 87.8276C48.1848 87.961 45.7682 87.7992 43.4084 87.3487C37.5867 86.2355 32.2921 83.4187 27.1943 80.5122C21.9674 77.5336 17.3201 73.6386 13.8362 68.6501C11.3846 65.1422 9.68318 61.011 9.57602 56.7311C9.50823 54.063 10.0549 51.4212 10.6454 48.8187C10.9407 47.5174 11.2534 46.2031 11.857 45.0112C12.3513 44.038 13.0249 43.1697 13.6722 42.2905C15.0019 40.4819 16.2244 38.5968 17.3354 36.6482C17.9696 35.535 18.6716 34.1988 18.5601 32.8735C18.4573 31.6597 17.6941 30.6799 19.2184 29.8839C20.5065 29.2103 23.9947 28.7882 24.5546 30.5815C24.8126 31.4038 24.5655 32.4251 24.478 33.2584C24.349 34.4875 24.2724 35.7187 24.2659 36.9566C24.2418 41.8051 25.1932 46.6601 27.0696 51.1303L27.0674 51.1281Z" fill="#FFE681"/>
<path d="M75.6006 74.5346C75.7734 75.2366 75.7515 75.9715 75.6487 76.6866C75.5875 77.1218 75.4432 77.6182 75.0364 77.7823C74.9314 77.8238 74.8111 77.8391 74.704 77.8041C74.5574 77.756 74.4568 77.6226 74.3693 77.4958C73.7395 76.5641 73.3852 75.4531 73.3415 74.3312C73.3218 73.8304 73.359 72.3411 74.085 72.2842C74.7346 72.2339 75.4847 74.0644 75.6006 74.5368V74.5346Z" fill="#BD4B17"/>
<path d="M26.3624 30.9397C25.7982 29.1399 25.2624 26.8129 23.3707 25.9972C21.7698 25.3083 19.7556 25.6341 18.6315 27.0272C18.076 27.714 16.7966 29.0174 16.6807 29.8615C16.5407 30.8741 17.7961 32.4006 18.4981 33.0108C19.1804 33.6035 20.1121 33.9687 20.9978 33.7893C21.4767 33.6909 21.9142 33.4438 22.3887 33.3213C23.1126 33.1355 23.878 33.2536 24.615 33.376C25.1071 33.4591 25.6538 33.5335 26.0694 33.2557C26.4171 33.0239 26.5855 32.5865 26.5964 32.1688C26.6074 31.7511 26.4849 31.34 26.3581 30.9419L26.3624 30.9397Z" fill="#225F40"/>
<path d="M23.2235 27.9531C23.7068 27.8219 24.2099 27.4829 24.2449 26.9821C24.2689 26.6475 24.0655 26.3238 23.7921 26.1292C23.5188 25.9345 23.182 25.847 22.8495 25.7924C22.001 25.6546 21.1262 25.7071 20.2864 25.8973C20.1377 25.9301 19.9846 25.9717 19.8644 26.0657C19.5954 26.2801 19.6129 26.7853 19.7594 27.0783C19.9212 27.3998 20.3345 27.5332 20.6473 27.6622C21.4542 27.999 22.3597 28.1849 23.2213 27.9509L23.2235 27.9531Z" fill="#318959"/>
<path d="M22.1989 35.1041C21.3176 40.0138 21.8556 44.8514 23.3493 49.5906C24.0644 51.8563 24.972 54.0651 26.0043 56.204C27.0649 58.4062 28.2153 61.2996 30.048 62.9617C30.4941 63.3663 31.3055 62.9792 31.1065 62.345C30.4919 60.3745 29.0332 58.6162 28.0578 56.7944C26.8135 54.4697 25.7178 52.064 24.8583 49.5709C23.2662 44.9542 22.5204 40.0685 22.831 35.1894C22.8528 34.8307 22.2624 34.7432 22.1968 35.1041H22.1989Z" fill="#F7A450"/>
<path d="M31.6104 64.6758C35.7722 69.0957 43.0482 70.959 48.8262 71.8513C55.8485 72.936 63.5095 73.1788 70.58 72.433C71.1748 72.3696 71.1836 71.556 70.58 71.4992C63.6691 70.8606 56.7343 71.6938 49.8169 70.7337C46.7573 70.3095 43.7305 69.6249 40.8197 68.5796C37.6486 67.4402 35.0067 65.6556 32.0762 64.0744C31.6934 63.8689 31.3108 64.3544 31.6126 64.6758H31.6104Z" fill="#F7A450"/>
<path d="M12.9847 55.0507C12.9038 57.1721 13.1291 59.1644 13.6846 61.2157C14.146 62.915 14.7015 65.0408 16.1099 66.1714C16.3133 66.3354 16.6982 66.2524 16.6785 65.9352C16.5779 64.2906 15.6375 62.7707 15.1498 61.2026C14.5331 59.2103 14.17 57.1174 13.9229 55.0485C13.8529 54.4624 13.0066 54.4274 12.9825 55.0485L12.9847 55.0507Z" fill="#FCE6B9"/>
<path d="M18.1836 69.7853C18.2273 70.5158 18.5532 71.2768 19.2946 71.5261C19.697 71.6617 20.1191 71.1434 19.8654 70.7826C19.603 70.4086 19.2334 70.1112 19.0912 69.6628C18.9403 69.1883 18.1508 69.243 18.1858 69.7853H18.1836Z" fill="#FCE6B9"/>
<path d="M46.6754 85.4128C49.8334 85.8283 53.0089 85.1613 56.121 84.6496C57.7678 84.3784 59.4123 84.1072 61.0591 83.8382C62.59 83.5867 64.2062 83.5058 65.584 82.7688C65.818 82.6441 65.7939 82.2023 65.5052 82.1608C62.8131 81.7584 59.7076 82.8628 57.0504 83.3396C53.63 83.9541 50.1724 84.8639 46.6754 84.748C46.2336 84.7327 46.2643 85.3603 46.6754 85.415V85.4128Z" fill="#FCE6B9"/>
</svg>
